<svg width="715.5" height="135.27" viewBox="0 0 715.5 135.27" xmlns="http://www.w3.org/2000/svg"><g id="svgGroup" stroke-linecap="round" fill-rule="evenodd" font-size="9pt" stroke="#000" stroke-width="0.25mm" fill="black" style="stroke:#000;stroke-width:0.25mm;fill:black"><path d="M 3.375 90.585 L 4.86 27.54 A 228.879 228.879 0 0 0 4.849 25.278 Q 4.791 19.389 4.41 17.602 A 2.058 2.058 0 0 0 4.185 16.943 A 6.902 6.902 0 0 1 3.894 16.454 Q 3.208 15.206 1.861 12.06 A 173.024 173.024 0 0 1 1.755 11.813 A 67.494 67.494 0 0 1 1.159 10.37 Q 0.267 8.137 0.062 7.038 A 3.118 3.118 0 0 1 0 6.48 Q 0 5.971 2.401 5.101 A 29.6 29.6 0 0 1 2.7 4.995 A 51.643 51.643 0 0 1 7.93 3.35 Q 12.091 2.295 15.592 2.295 A 154.6 154.6 0 0 1 16.91 2.3 Q 21.112 2.336 21.449 2.617 A 0.111 0.111 0 0 1 21.465 2.633 Q 21.735 2.97 21.735 7.898 Q 21.735 12.825 21.06 33.075 A 3.71 3.71 0 0 0 21.068 33.33 Q 21.106 33.885 21.33 33.885 Q 21.6 33.885 22.005 33.345 Q 29.063 24.018 38.827 13.221 A 424.147 424.147 0 0 1 40.23 11.678 Q 49.126 1.937 52.151 0.321 A 2.229 2.229 0 0 1 53.122 0 Q 55.14 0 58.208 1.218 A 31.332 31.332 0 0 1 58.86 1.485 A 38.744 38.744 0 0 1 61.665 2.799 Q 63.009 3.499 64.125 4.24 A 21.363 21.363 0 0 1 64.732 4.658 A 29.646 29.646 0 0 1 65.52 5.238 Q 66.96 6.341 67.083 6.804 A 0.316 0.316 0 0 1 67.095 6.885 L 67.095 7.02 A 64.232 64.232 0 0 0 62.975 9.912 Q 59.4 12.623 55.35 16.335 A 234.648 234.648 0 0 0 50.832 20.581 Q 49.091 22.263 47.589 23.801 A 111.379 111.379 0 0 0 44.82 26.73 A 133.641 133.641 0 0 0 43.871 27.785 Q 41.43 30.528 40.91 31.478 A 0.927 0.927 0 0 0 40.77 31.86 Q 40.77 36.558 50.502 58.151 A 627.606 627.606 0 0 0 51.773 60.953 Q 62.164 83.712 69.003 91.358 A 25.155 25.155 0 0 0 69.795 92.205 A 0.073 0.073 0 0 1 69.816 92.255 Q 69.826 92.444 69.187 93.083 Q 68.546 93.724 67.249 94.567 A 28.075 28.075 0 0 1 66.825 94.838 A 30.724 30.724 0 0 1 64.874 95.955 A 38.864 38.864 0 0 1 63.18 96.795 Q 58.455 99.225 53.19 99.225 Q 48.33 94.365 42.39 81.068 Q 36.844 68.653 33.123 58.415 A 238.252 238.252 0 0 1 32.602 56.97 A 852.082 852.082 0 0 0 31.697 54.439 Q 28.721 46.17 28.485 46.17 A 0.654 0.654 0 0 0 28.13 46.367 Q 27.326 47.06 25.258 50.19 A 123.865 123.865 0 0 0 24.232 51.773 Q 20.886 57.014 20.67 58.297 A 0.964 0.964 0 0 0 20.655 58.455 L 20.655 67.23 Q 20.655 90.45 21.465 94.365 Q 21.593 94.749 20.141 95.498 A 14.398 14.398 0 0 1 19.98 95.58 Q 16.174 97.483 10.698 97.808 A 39.295 39.295 0 0 1 8.37 97.875 L 3.78 97.2 Q 3.38 96.8 3.375 90.729 A 186.957 186.957 0 0 1 3.375 90.585 Z M 279.045 90.585 L 280.53 27.54 A 228.879 228.879 0 0 0 280.519 25.278 Q 280.461 19.389 280.08 17.602 A 2.058 2.058 0 0 0 279.855 16.943 A 6.902 6.902 0 0 1 279.564 16.454 Q 278.878 15.206 277.531 12.06 A 173.024 173.024 0 0 1 277.425 11.813 A 67.494 67.494 0 0 1 276.829 10.37 Q 275.937 8.137 275.732 7.038 A 3.118 3.118 0 0 1 275.67 6.48 Q 275.67 5.971 278.071 5.101 A 29.6 29.6 0 0 1 278.37 4.995 A 51.643 51.643 0 0 1 283.6 3.35 Q 287.761 2.295 291.262 2.295 A 154.6 154.6 0 0 1 292.58 2.3 Q 296.782 2.336 297.119 2.617 A 0.111 0.111 0 0 1 297.135 2.633 Q 297.405 2.97 297.405 7.898 Q 297.405 12.825 296.73 33.075 A 3.71 3.71 0 0 0 296.738 33.33 Q 296.776 33.885 297 33.885 Q 297.27 33.885 297.675 33.345 Q 304.733 24.018 314.497 13.221 A 424.147 424.147 0 0 1 315.9 11.678 Q 324.796 1.937 327.821 0.321 A 2.229 2.229 0 0 1 328.792 0 Q 330.81 0 333.878 1.218 A 31.332 31.332 0 0 1 334.53 1.485 A 38.744 38.744 0 0 1 337.335 2.799 Q 338.679 3.499 339.795 4.24 A 21.363 21.363 0 0 1 340.402 4.658 A 29.646 29.646 0 0 1 341.19 5.238 Q 342.63 6.341 342.753 6.804 A 0.316 0.316 0 0 1 342.765 6.885 L 342.765 7.02 A 64.232 64.232 0 0 0 338.645 9.912 Q 335.07 12.623 331.02 16.335 A 234.648 234.648 0 0 0 326.502 20.581 Q 324.761 22.263 323.259 23.801 A 111.379 111.379 0 0 0 320.49 26.73 A 133.641 133.641 0 0 0 319.541 27.785 Q 317.1 30.528 316.58 31.478 A 0.927 0.927 0 0 0 316.44 31.86 Q 316.44 36.558 326.172 58.151 A 627.606 627.606 0 0 0 327.443 60.953 Q 337.834 83.712 344.673 91.358 A 25.155 25.155 0 0 0 345.465 92.205 A 0.073 0.073 0 0 1 345.486 92.255 Q 345.496 92.444 344.857 93.083 Q 344.216 93.724 342.919 94.567 A 28.075 28.075 0 0 1 342.495 94.838 A 30.724 30.724 0 0 1 340.544 95.955 A 38.864 38.864 0 0 1 338.85 96.795 Q 334.125 99.225 328.86 99.225 Q 324 94.365 318.06 81.068 Q 312.514 68.653 308.793 58.415 A 238.252 238.252 0 0 1 308.272 56.97 A 852.082 852.082 0 0 0 307.367 54.439 Q 304.391 46.17 304.155 46.17 A 0.654 0.654 0 0 0 303.8 46.367 Q 302.996 47.06 300.928 50.19 A 123.865 123.865 0 0 0 299.902 51.773 Q 296.556 57.014 296.34 58.297 A 0.964 0.964 0 0 0 296.325 58.455 L 296.325 67.23 Q 296.325 90.45 297.135 94.365 Q 297.263 94.749 295.811 95.498 A 14.398 14.398 0 0 1 295.65 95.58 Q 291.844 97.483 286.368 97.808 A 39.295 39.295 0 0 1 284.04 97.875 L 279.45 97.2 Q 279.05 96.8 279.045 90.729 A 186.957 186.957 0 0 1 279.045 90.585 Z M 638.28 76.545 L 637.875 44.82 A 184.95 184.95 0 0 1 637.886 42.784 Q 637.959 36.101 638.549 35.506 A 0.321 0.321 0 0 1 638.55 35.505 Q 640.17 34.02 643.545 32.738 A 20.384 20.384 0 0 1 647.055 31.737 A 16.22 16.22 0 0 1 650.025 31.455 A 27.936 27.936 0 0 1 650.92 31.468 Q 653.13 31.539 653.13 31.995 Q 652.717 36.543 652.62 39.429 A 48.353 48.353 0 0 0 652.59 41.04 A 58.782 58.782 0 0 0 652.594 41.768 Q 652.624 44.145 652.86 44.145 A 0.382 0.382 0 0 0 653.017 44.105 Q 653.269 43.988 653.67 43.538 A 10.092 10.092 0 0 1 653.995 43.192 Q 654.564 42.609 655.627 41.648 A 12.246 12.246 0 0 1 656.488 40.947 Q 658.007 39.808 660.892 38.138 A 19.971 19.971 0 0 1 663.579 36.824 Q 665.904 35.91 667.98 35.91 A 15.435 15.435 0 0 1 674.28 37.15 Q 677.765 38.689 680.196 42.138 A 19.614 19.614 0 0 1 681.21 43.74 A 36.27 36.27 0 0 1 685.603 38.58 Q 688.339 35.958 691.257 34.555 A 15.89 15.89 0 0 1 698.22 32.94 A 15.202 15.202 0 0 1 703.257 33.729 Q 707.8 35.316 710.235 40.095 A 48.586 48.586 0 0 1 713.859 50.549 A 42.328 42.328 0 0 1 714.69 56.025 Q 715.5 67.635 715.5 80.055 L 714.96 95.85 A 0.628 0.628 0 0 1 714.69 96.311 Q 713.864 97.011 710.505 97.673 Q 706.05 98.55 703.35 98.55 L 699.03 97.875 A 328.828 328.828 0 0 0 699.813 90.023 Q 700.515 81.937 700.515 76.275 A 536.76 536.76 0 0 0 700.502 72.449 Q 700.468 67.705 700.343 65.058 A 64.055 64.055 0 0 0 700.312 64.463 Q 700.11 60.885 699.3 57.308 A 16.573 16.573 0 0 0 698.742 55.362 Q 697.989 53.269 696.802 52.178 A 5.822 5.822 0 0 0 693.406 50.671 A 7.788 7.788 0 0 0 692.55 50.625 Q 689.985 50.625 687.96 52.043 A 16.528 16.528 0 0 0 686.729 52.987 Q 686.155 53.476 685.721 53.956 A 6.872 6.872 0 0 0 685.057 54.81 A 18.631 18.631 0 0 0 684.759 55.283 Q 684.329 55.99 684.219 56.354 A 0.751 0.751 0 0 0 684.18 56.565 A 49.063 49.063 0 0 1 684.318 58.584 Q 684.575 63.626 684.585 75.605 A 1171.048 1171.048 0 0 1 684.585 76.545 L 684.045 87.21 A 0.753 0.753 0 0 1 683.74 87.765 Q 682.897 88.505 679.725 89.1 Q 675.602 89.873 672.955 89.908 A 18.749 18.749 0 0 1 672.705 89.91 L 668.385 89.235 A 202.979 202.979 0 0 0 669.399 76.749 A 163.196 163.196 0 0 0 669.6 68.783 A 141.683 141.683 0 0 0 669.537 64.378 Q 669.348 58.336 668.596 55.449 A 13.073 13.073 0 0 0 668.588 55.418 Q 667.785 52.369 664.906 51.736 A 7.694 7.694 0 0 0 663.255 51.57 A 7.922 7.922 0 0 0 657.586 53.95 A 12.655 12.655 0 0 0 655.965 55.89 Q 653.781 59.067 653.203 61.149 A 5.118 5.118 0 0 0 652.995 62.505 L 652.995 65.34 L 653.13 79.65 A 539.092 539.092 0 0 1 653.122 82.761 Q 653.065 92.566 652.626 93.494 A 0.31 0.31 0 0 1 652.59 93.555 A 8.309 8.309 0 0 1 649.975 95.175 Q 647.339 96.264 643.026 96.621 A 56.154 56.154 0 0 1 638.415 96.795 A 4.399 4.399 0 0 1 638.076 96.783 Q 637.539 96.741 637.391 96.554 A 0.257 0.257 0 0 1 637.335 96.39 A 48.932 48.932 0 0 0 637.748 92.973 Q 638.274 87.139 638.28 76.774 A 414.659 414.659 0 0 0 638.28 76.545 Z M 164.565 67.095 L 164.16 20.25 A 422.572 422.572 0 0 1 164.171 17.17 Q 164.242 7.446 164.792 6.537 A 0.301 0.301 0 0 1 164.835 6.48 A 9.174 9.174 0 0 1 166.116 5.431 Q 167.435 4.522 169.429 3.657 A 32.612 32.612 0 0 1 170.1 3.375 A 20.888 20.888 0 0 1 173.842 2.227 A 16.531 16.531 0 0 1 177.12 1.89 A 33.004 33.004 0 0 1 178.092 1.903 Q 180.495 1.974 180.495 2.43 Q 180.377 3.019 180.003 16.966 A 4674.46 4674.46 0 0 0 179.888 21.33 A 3770.636 3770.636 0 0 0 179.703 28.687 Q 179.483 37.901 179.431 42.502 A 217.496 217.496 0 0 0 179.415 44.888 A 326.671 326.671 0 0 0 179.42 46.726 Q 179.44 50.359 179.55 50.963 Q 179.64 51.46 179.852 51.624 A 0.378 0.378 0 0 0 180.09 51.705 L 180.36 51.57 A 74.144 74.144 0 0 1 183.469 48.477 Q 186.794 45.342 191.58 41.405 A 264.723 264.723 0 0 1 193.185 40.095 A 122.762 122.762 0 0 1 196.161 37.755 Q 202.042 33.289 204.05 33.211 A 1.809 1.809 0 0 1 204.12 33.21 A 52.779 52.779 0 0 1 206.827 35.017 Q 210.993 38.004 211.858 40.209 A 3.015 3.015 0 0 1 212.085 41.31 A 73.716 73.716 0 0 0 208.875 43.474 Q 207.428 44.501 205.834 45.715 A 158.954 158.954 0 0 0 202.5 48.33 A 129.897 129.897 0 0 0 200.6 49.887 Q 196.864 53.013 196.425 54 A 3.246 3.246 0 0 0 196.508 54.602 Q 196.868 56.333 198.787 61.763 Q 201.15 68.445 205.74 77.49 Q 210.33 86.535 214.92 91.125 A 0.901 0.901 0 0 1 214.917 91.198 Q 214.787 92.8 208.98 95.175 A 41.308 41.308 0 0 1 205.088 96.558 Q 201.555 97.605 198.72 97.605 A 1.183 1.183 0 0 1 197.954 97.101 Q 196.502 95.452 193.758 88.403 A 192.312 192.312 0 0 1 192.442 84.915 Q 187.785 72.225 186.03 65.205 L 185.76 64.8 A 0.547 0.547 0 0 0 185.477 64.938 Q 184.688 65.534 182.385 68.715 A 47.034 47.034 0 0 0 181.422 70.093 Q 179.982 72.239 179.65 73.384 A 2.185 2.185 0 0 0 179.55 73.98 L 179.955 87.75 Q 179.955 92.217 179.499 93.035 A 0.524 0.524 0 0 1 179.415 93.15 Q 177.66 94.905 173.34 95.85 A 54.793 54.793 0 0 1 170.792 96.348 Q 168.176 96.791 166.283 96.795 A 16.354 16.354 0 0 1 166.253 96.795 A 29.588 29.588 0 0 1 165.455 96.785 Q 163.485 96.732 163.485 96.39 Q 164.496 90.832 164.561 70.025 A 939.057 939.057 0 0 0 164.565 67.095 Z M 494.235 42.66 L 494.235 59.805 L 494.505 91.8 Q 494.505 102.33 491.67 110.498 Q 489.573 116.539 486.811 120.587 A 25.1 25.1 0 0 1 484.785 123.188 Q 480.735 127.71 475.47 130.545 Q 466.965 135.27 458.325 135.27 Q 457.92 135.27 456.705 133.245 Q 455.49 131.22 454.41 127.71 A 26.353 26.353 0 0 1 453.635 124.538 Q 453.33 122.808 453.33 121.23 L 455.895 121.23 Q 458.595 121.23 461.092 120.758 A 11.877 11.877 0 0 0 462.9 120.25 Q 464.691 119.604 466.925 118.307 A 40.273 40.273 0 0 0 467.235 118.125 Q 470.88 115.965 473.445 112.455 A 19.644 19.644 0 0 0 475.129 109.643 Q 476.611 106.675 477.822 102.343 A 65.135 65.135 0 0 0 477.9 102.06 A 49.879 49.879 0 0 0 479.257 95.101 Q 479.69 91.665 479.771 87.801 A 85.901 85.901 0 0 0 479.79 85.995 A 3.381 3.381 0 0 0 479.787 85.839 Q 479.769 85.455 479.655 85.455 L 479.25 85.86 A 18.532 18.532 0 0 1 465.678 94.352 A 28.663 28.663 0 0 1 461.565 94.635 Q 452.52 94.635 447.12 87.48 Q 441.72 80.325 441.72 71.415 Q 441.72 55.215 452.115 44.685 Q 461.688 34.988 478.931 34.221 A 67.94 67.94 0 0 1 481.95 34.155 A 51.746 51.746 0 0 1 483.311 34.171 Q 485.957 34.241 486.522 34.609 A 0.275 0.275 0 0 1 486.675 34.83 A 26.406 26.406 0 0 1 487.018 37.777 A 32.974 32.974 0 0 1 487.08 39.825 L 486.945 41.85 L 488.43 41.85 Q 492.75 41.85 494.235 42.66 Z M 398.385 61.02 L 398.385 62.91 L 398.52 67.905 L 398.52 78.165 A 640.889 640.889 0 0 1 398.512 81.559 Q 398.457 91.763 398.055 93 A 0.394 0.394 0 0 1 397.98 93.15 Q 396.225 94.905 391.905 95.85 A 54.793 54.793 0 0 1 389.357 96.348 Q 386.741 96.791 384.848 96.795 A 16.354 16.354 0 0 1 384.818 96.795 A 29.588 29.588 0 0 1 384.02 96.785 Q 382.05 96.732 382.05 96.39 A 54.289 54.289 0 0 0 382.463 92.863 Q 382.995 86.839 382.995 76.41 L 382.59 46.035 A 173.659 173.659 0 0 1 382.601 44.063 Q 382.659 38.96 383.037 37.508 A 1.207 1.207 0 0 1 383.265 36.99 A 6.719 6.719 0 0 1 384.404 36.095 Q 385.889 35.146 388.395 34.358 Q 392.04 33.21 395.212 33.21 A 23.336 23.336 0 0 1 396.126 33.226 Q 398.385 33.315 398.385 33.885 Q 397.98 37.125 397.98 40.365 A 40.55 40.55 0 0 0 397.99 41.298 Q 398.043 43.605 398.385 43.605 L 398.79 43.335 Q 399.465 42.39 400.815 40.973 A 8.128 8.128 0 0 1 401.68 40.205 Q 403.19 39.021 406.256 37.353 A 79.084 79.084 0 0 1 406.552 37.192 A 21.935 21.935 0 0 1 410.182 35.62 Q 412.43 34.892 414.562 34.835 A 13.523 13.523 0 0 1 414.922 34.83 A 18.649 18.649 0 0 1 417.958 35.064 Q 420.029 35.406 421.672 36.248 A 16.597 16.597 0 0 1 424.327 37.925 A 13.246 13.246 0 0 1 426.195 39.69 Q 427.47 41.161 428.496 43.559 A 26.913 26.913 0 0 1 429.233 45.495 Q 430.515 49.275 431.19 52.515 A 41.037 41.037 0 0 1 431.586 54.751 Q 431.965 57.264 432.232 60.666 A 132.494 132.494 0 0 1 432.27 61.155 A 215.139 215.139 0 0 1 432.447 65.121 Q 432.675 71.449 432.675 80.055 L 432.27 95.85 A 0.628 0.628 0 0 1 432 96.311 Q 431.174 97.011 427.815 97.673 Q 423.36 98.55 420.66 98.55 L 416.205 97.875 A 216.238 216.238 0 0 0 417.533 77.271 A 195.241 195.241 0 0 0 417.555 74.318 A 140.92 140.92 0 0 0 417.438 68.349 Q 417.137 61.296 416.07 57.173 Q 415.297 54.184 413.717 52.752 A 5.143 5.143 0 0 0 410.13 51.435 A 13.316 13.316 0 0 0 406.966 51.791 A 9.439 9.439 0 0 0 402.907 53.865 A 17.085 17.085 0 0 0 401.24 55.531 Q 400.465 56.429 399.958 57.328 A 7.963 7.963 0 0 0 399.33 58.725 L 398.385 61.02 Z M 540.405 35.37 L 540.135 15.39 A 287.553 287.553 0 0 1 540.141 13.422 Q 540.186 6.969 540.54 6.615 Q 542.16 4.995 545.872 3.443 Q 549.585 1.89 552.96 1.89 A 33.004 33.004 0 0 1 553.932 1.903 Q 556.335 1.974 556.335 2.43 Q 555.255 24.84 555.255 50.085 A 1240.548 1240.548 0 0 0 555.283 58.835 Q 555.407 76.241 556.065 80.19 A 28.654 28.654 0 0 0 556.906 84.377 Q 557.506 86.477 558.41 88.13 A 12.461 12.461 0 0 0 560.52 90.99 A 1.221 1.221 0 0 1 560.222 91.695 Q 559.229 93.009 554.917 95.243 A 35.649 35.649 0 0 1 551.583 96.772 Q 548.093 98.145 545.4 98.145 Q 544.995 98.145 544.185 97.065 Q 541.62 93.69 541.08 87.885 A 0.899 0.899 0 0 0 541.07 87.742 Q 541.029 87.492 540.83 87.481 A 0.341 0.341 0 0 0 540.81 87.48 L 540.405 87.75 A 18.444 18.444 0 0 1 526.896 95.652 A 27.707 27.707 0 0 1 523.53 95.85 A 18.316 18.316 0 0 1 516.455 94.529 Q 512.223 92.776 509.22 88.695 Q 503.955 81.54 503.955 72.63 A 40.883 40.883 0 0 1 506.448 58.151 A 36.971 36.971 0 0 1 513.405 46.643 A 31.945 31.945 0 0 1 529.76 36.822 A 47.986 47.986 0 0 1 540.405 35.37 Z M 117.902 94.715 A 12.363 12.363 0 0 0 120.96 93.285 A 13.599 13.599 0 0 0 122.71 90.31 Q 124.335 86.567 124.335 81.135 Q 124.335 78.57 124.065 78.57 Q 123.93 78.57 123.829 78.604 A 0.424 0.424 0 0 0 123.66 78.705 Q 117.72 82.35 107.46 82.35 A 20.859 20.859 0 0 1 106.446 82.325 A 22.612 22.612 0 0 1 100.912 81.338 A 12.336 12.336 0 0 1 99.892 80.979 Q 97.605 80.052 97.605 78.705 Q 110.295 74.385 117.652 66.15 Q 125.01 57.915 125.01 49.478 Q 125.01 41.04 119.677 37.665 Q 114.345 34.29 108 34.29 A 41.524 41.524 0 0 0 100.243 34.981 A 27.969 27.969 0 0 0 83.902 44.078 Q 75.33 53.865 75.33 67.163 Q 75.33 72.045 76.295 76.209 A 27.061 27.061 0 0 0 82.485 88.425 Q 87.236 93.714 94.726 95.491 A 35.847 35.847 0 0 0 103.005 96.39 A 114.273 114.273 0 0 0 103.207 96.39 Q 112.872 96.373 117.902 94.715 Z M 626.535 65.205 Q 626.535 78.03 618.772 87.413 A 25.351 25.351 0 0 1 600.257 96.706 A 35.514 35.514 0 0 1 597.713 96.795 A 34.552 34.552 0 0 1 588.896 95.731 A 24.414 24.414 0 0 1 576.855 88.56 Q 569.295 80.325 569.295 67.163 A 33.418 33.418 0 0 1 578.387 44.127 A 42.753 42.753 0 0 1 578.678 43.808 A 31.027 31.027 0 0 1 597.732 34.044 A 44.108 44.108 0 0 1 603.99 33.615 A 136.283 136.283 0 0 1 605.517 33.687 Q 609.469 33.896 610.603 34.233 A 1.021 1.021 0 0 1 611.01 34.425 Q 611.512 34.927 611.547 36.71 A 14.032 14.032 0 0 1 611.55 36.99 A 23.519 23.519 0 0 1 611.449 39.116 A 31.58 31.58 0 0 1 611.145 41.445 A 4.68 4.68 0 0 1 612.523 41.676 Q 613.797 42.07 615.398 43.14 A 22.539 22.539 0 0 1 616.342 43.808 A 36.147 36.147 0 0 1 619.065 46.037 Q 620.464 47.309 621.54 48.6 A 14.973 14.973 0 0 1 623.04 50.797 Q 624.145 52.744 625.05 55.418 A 27.883 27.883 0 0 1 626.326 61.297 A 35.443 35.443 0 0 1 626.535 65.205 Z M 150.39 39.42 L 150.255 46.305 L 149.985 68.175 A 296.599 296.599 0 0 0 150.023 73.09 Q 150.105 78.018 150.364 81.313 A 53.109 53.109 0 0 0 150.592 83.633 Q 151.2 88.56 154.035 92.88 A 1.229 1.229 0 0 1 153.751 93.575 Q 152.781 94.903 148.5 97.2 Q 144.988 99.084 142.128 99.773 A 13.188 13.188 0 0 1 139.05 100.17 Q 138.01 100.17 136.969 97.201 A 25.027 25.027 0 0 1 136.62 96.12 A 43.514 43.514 0 0 1 135.531 91.692 A 35.039 35.039 0 0 1 135.068 88.425 A 40.573 40.573 0 0 1 134.953 86.451 Q 134.77 81.86 134.737 69.589 A 2151.601 2151.601 0 0 1 134.73 63.855 Q 134.73 42.93 135.675 41.04 A 8.716 8.716 0 0 1 138.077 39.759 Q 141.227 38.61 146.61 38.61 A 18.562 18.562 0 0 1 147.771 38.643 Q 149.522 38.754 150.18 39.228 A 1.131 1.131 0 0 1 150.39 39.42 Z M 236.925 39.42 L 236.79 46.305 L 236.52 68.175 A 296.599 296.599 0 0 0 236.558 73.09 Q 236.64 78.018 236.899 81.313 A 53.109 53.109 0 0 0 237.127 83.633 Q 237.735 88.56 240.57 92.88 A 1.229 1.229 0 0 1 240.286 93.575 Q 239.316 94.903 235.035 97.2 Q 231.523 99.084 228.663 99.773 A 13.188 13.188 0 0 1 225.585 100.17 Q 224.545 100.17 223.504 97.201 A 25.027 25.027 0 0 1 223.155 96.12 A 43.514 43.514 0 0 1 222.066 91.692 A 35.039 35.039 0 0 1 221.603 88.425 A 40.573 40.573 0 0 1 221.488 86.451 Q 221.305 81.86 221.272 69.589 A 2151.601 2151.601 0 0 1 221.265 63.855 Q 221.265 42.93 222.21 41.04 A 8.716 8.716 0 0 1 224.612 39.759 Q 227.762 38.61 233.145 38.61 A 18.562 18.562 0 0 1 234.306 38.643 Q 236.057 38.754 236.715 39.228 A 1.131 1.131 0 0 1 236.925 39.42 Z M 368.955 39.42 L 368.82 46.305 L 368.55 68.175 A 296.599 296.599 0 0 0 368.588 73.09 Q 368.67 78.018 368.929 81.313 A 53.109 53.109 0 0 0 369.157 83.633 Q 369.765 88.56 372.6 92.88 A 1.229 1.229 0 0 1 372.316 93.575 Q 371.346 94.903 367.065 97.2 Q 363.553 99.084 360.693 99.773 A 13.188 13.188 0 0 1 357.615 100.17 Q 356.575 100.17 355.534 97.201 A 25.027 25.027 0 0 1 355.185 96.12 A 43.514 43.514 0 0 1 354.096 91.692 A 35.039 35.039 0 0 1 353.633 88.425 A 40.573 40.573 0 0 1 353.518 86.451 Q 353.335 81.86 353.302 69.589 A 2151.601 2151.601 0 0 1 353.295 63.855 Q 353.295 42.93 354.24 41.04 A 8.716 8.716 0 0 1 356.642 39.759 Q 359.792 38.61 365.175 38.61 A 18.562 18.562 0 0 1 366.336 38.643 Q 368.087 38.754 368.745 39.228 A 1.131 1.131 0 0 1 368.955 39.42 Z M 600.75 53.73 L 599.67 53.73 Q 599.4 53.19 599.4 51.435 Q 599.4 49.68 599.805 48.06 A 12.508 12.508 0 0 0 593.018 50.11 Q 591.2 51.26 589.477 53.055 Q 584.944 57.78 584.699 66.01 A 31.977 31.977 0 0 0 584.685 66.96 Q 584.685 73.685 587.438 77.767 A 12.531 12.531 0 0 0 591.435 81.54 A 9.248 9.248 0 0 0 593.842 82.589 Q 595.837 83.16 598.522 83.16 Q 602.829 83.16 606.645 79.366 A 19.714 19.714 0 0 0 607.027 78.975 A 13.209 13.209 0 0 0 609.951 73.971 Q 611.01 70.801 611.01 66.555 A 25.115 25.115 0 0 0 610.765 62.899 Q 609.996 57.699 606.825 55.755 A 14.001 14.001 0 0 0 604.348 54.453 Q 602.525 53.73 600.75 53.73 Z M 539.19 49.275 L 538.65 49.275 A 21.674 21.674 0 0 0 532.806 50.021 A 15.813 15.813 0 0 0 525.082 54.81 A 19.255 19.255 0 0 0 520.408 65.149 A 26.218 26.218 0 0 0 520.155 68.85 Q 520.155 73.845 522.517 77.018 A 7.621 7.621 0 0 0 527.296 79.966 A 11.92 11.92 0 0 0 529.673 80.19 A 8.718 8.718 0 0 0 536.414 77.211 A 11.871 11.871 0 0 0 537.367 76.005 Q 539.634 72.737 540.131 70.54 A 5.233 5.233 0 0 0 540.27 69.39 A 879.372 879.372 0 0 1 540.289 63.319 Q 540.359 53.342 540.675 49.545 A 0.139 0.139 0 0 0 540.588 49.43 Q 540.351 49.295 539.466 49.278 A 14.049 14.049 0 0 0 539.19 49.275 Z M 479.52 48.465 L 476.685 48.06 A 21.542 21.542 0 0 0 470.708 48.848 A 16.282 16.282 0 0 0 462.982 53.663 Q 457.92 59.265 457.92 67.635 A 11.769 11.769 0 0 0 458.8 72.224 A 11.185 11.185 0 0 0 460.418 74.925 A 8.078 8.078 0 0 0 465.323 77.811 A 12.32 12.32 0 0 0 467.707 78.03 A 10.056 10.056 0 0 0 475.224 74.818 A 13.054 13.054 0 0 0 475.74 74.25 A 25.981 25.981 0 0 0 477.119 72.506 Q 478.374 70.758 478.783 69.397 A 4.266 4.266 0 0 0 478.98 68.175 A 710.548 710.548 0 0 1 478.999 62.793 Q 479.078 52.379 479.488 48.737 A 22.204 22.204 0 0 1 479.52 48.465 Z M 109.215 50.355 A 5.237 5.237 0 0 0 108.993 48.758 Q 108.25 46.44 105.03 46.44 A 10.484 10.484 0 0 0 98.274 48.94 Q 96.825 50.116 95.508 51.845 A 21.886 21.886 0 0 0 95.31 52.11 A 21.328 21.328 0 0 0 91.325 62.37 A 27.707 27.707 0 0 0 91.125 65.745 Q 91.125 67.102 91.403 67.485 A 0.318 0.318 0 0 0 91.665 67.635 A 11.261 11.261 0 0 0 95.35 66.849 Q 98.805 65.535 102.87 62.033 Q 107.285 58.228 108.628 54.064 A 12.013 12.013 0 0 0 109.215 50.355 Z M 146.22 13.091 A 9.228 9.228 0 0 0 143.437 12.69 A 8.932 8.932 0 0 0 139.496 13.587 A 10.786 10.786 0 0 0 136.755 15.525 A 11.707 11.707 0 0 0 136.561 15.714 A 8.969 8.969 0 0 0 133.785 22.275 A 11.532 11.532 0 0 0 134.003 24.57 A 7.986 7.986 0 0 0 136.012 28.553 A 7.213 7.213 0 0 0 139.291 30.558 A 9.439 9.439 0 0 0 141.952 30.915 A 9.251 9.251 0 0 0 145.837 30.075 A 11.114 11.114 0 0 0 148.703 28.148 A 11.337 11.337 0 0 0 149.026 27.841 A 8.645 8.645 0 0 0 151.74 21.465 A 11.569 11.569 0 0 0 151.578 19.49 A 8.259 8.259 0 0 0 149.445 15.12 A 7.447 7.447 0 0 0 146.22 13.091 Z M 232.755 13.091 A 9.228 9.228 0 0 0 229.972 12.69 A 8.932 8.932 0 0 0 226.031 13.587 A 10.786 10.786 0 0 0 223.29 15.525 A 11.707 11.707 0 0 0 223.096 15.714 A 8.969 8.969 0 0 0 220.32 22.275 A 11.532 11.532 0 0 0 220.538 24.57 A 7.986 7.986 0 0 0 222.547 28.553 A 7.213 7.213 0 0 0 225.826 30.558 A 9.439 9.439 0 0 0 228.487 30.915 A 9.251 9.251 0 0 0 232.372 30.075 A 11.114 11.114 0 0 0 235.238 28.148 A 11.337 11.337 0 0 0 235.561 27.841 A 8.645 8.645 0 0 0 238.275 21.465 A 11.569 11.569 0 0 0 238.113 19.49 A 8.259 8.259 0 0 0 235.98 15.12 A 7.447 7.447 0 0 0 232.755 13.091 Z M 364.785 13.091 A 9.228 9.228 0 0 0 362.002 12.69 A 8.932 8.932 0 0 0 358.061 13.587 A 10.786 10.786 0 0 0 355.32 15.525 A 11.707 11.707 0 0 0 355.126 15.714 A 8.969 8.969 0 0 0 352.35 22.275 A 11.532 11.532 0 0 0 352.568 24.57 A 7.986 7.986 0 0 0 354.577 28.553 A 7.213 7.213 0 0 0 357.856 30.558 A 9.439 9.439 0 0 0 360.517 30.915 A 9.251 9.251 0 0 0 364.402 30.075 A 11.114 11.114 0 0 0 367.268 28.148 A 11.337 11.337 0 0 0 367.591 27.841 A 8.645 8.645 0 0 0 370.305 21.465 A 11.569 11.569 0 0 0 370.143 19.49 A 8.259 8.259 0 0 0 368.01 15.12 A 7.447 7.447 0 0 0 364.785 13.091 Z" vector-effect="non-scaling-stroke"/></g></svg>